HIERARCHY
ROOT hip
{
  OFFSET 0 0 0
  CHANNELS 6 Xposition Yposition Zposition Zrotation Yrotation Xrotation
  JOINT abdomen
  {
    OFFSET 0 20.6881 -0.73152
    CHANNELS 3 Zrotation Xrotation Yrotation
    JOINT chest
    {
      OFFSET 0 11.7043 -0.48768
      CHANNELS 3 Zrotation Xrotation Yrotation
      JOINT neck
      {
        OFFSET 0 22.1894 -2.19456
        CHANNELS 3 Zrotation Xrotation Yrotation
        JOINT head
        {
          OFFSET -0.24384 7.07133 1.2192
          CHANNELS 3 Zrotation Xrotation Yrotation
          JOINT leftEye
          {
            OFFSET 4.14528 8.04674 8.04672
            CHANNELS 3 Zrotation Xrotation Yrotation
            End Site
            {
              OFFSET 1 0 0
            }
          }
          JOINT rightEye
          {
            OFFSET -3.6576 8.04674 8.04672
            CHANNELS 3 Zrotation Xrotation Yrotation
            End Site
            {
              OFFSET 1 0 0
            }
          }
        }
      }
      JOINT rCollar
      {
        OFFSET -2.68224 19.2634 -4.8768
        CHANNELS 3 Zrotation Xrotation Yrotation
        JOINT rShldr
        {
          OFFSET -8.77824 -1.95073 1.46304
          CHANNELS 3 Zrotation Xrotation Yrotation
          JOINT rForeArm
          {
            OFFSET -28.1742 -1.7115 0.48768
            CHANNELS 3 Zrotation Xrotation Yrotation
            JOINT rHand
            {
              OFFSET -22.5879 0.773209 7.07136
              CHANNELS 3 Zrotation Xrotation Yrotation
              JOINT rThumb1
              {
                OFFSET -1.2192 -0.487915 3.41376
                CHANNELS 3 Zrotation Xrotation Yrotation
                JOINT rThumb2
                {
                  OFFSET -3.37035 -0.52449 3.41376
                  CHANNELS 3 Zrotation Xrotation Yrotation
                  End Site
                  {
                    OFFSET -1.78271 -1.18214 1.43049
                  }
                }
              }
              JOINT rIndex1
              {
                OFFSET -7.75947 0.938293 5.60832
                CHANNELS 3 Zrotation Xrotation Yrotation
                JOINT rIndex2
                {
                  OFFSET -2.54057 -0.884171 1.56538
                  CHANNELS 3 Zrotation Xrotation Yrotation
                  End Site
                  {
                    OFFSET -1.62519 -0.234802 1.16502
                  }
                }
              }
              JOINT rMid1
              {
                OFFSET -8.24714 1.18213 3.41376
                CHANNELS 3 Zrotation Xrotation Yrotation
                JOINT rMid2
                {
                  OFFSET -3.10165 -0.590103 1.0647
                  CHANNELS 3 Zrotation Xrotation Yrotation
                  End Site
                  {
                    OFFSET -2.48547 -0.328903 0.83742
                  }
                }
              }
              JOINT rRing1
              {
                OFFSET -8.82822 0.546677 1.51678
                CHANNELS 3 Zrotation Xrotation Yrotation
                JOINT rRing2
                {
                  OFFSET -2.60934 -0.819778 -0.0198488
                  CHANNELS 3 Zrotation Xrotation Yrotation
                  End Site
                  {
                    OFFSET -2.33842 -0.294052 0.168128
                  }
                }
              }
              JOINT rPinky1
              {
                OFFSET -8.27202 -0.0477905 -0.4584
                CHANNELS 3 Zrotation Xrotation Yrotation
                JOINT rPinky2
                {
                  OFFSET -1.82734 -0.647385 -0.700984
                  CHANNELS 3 Zrotation Xrotation Yrotation
                  End Site
                  {
                    OFFSET -1.69225 -0.51767 -0.607171
                  }
                }
              }
            }
          }
        }
      }
      JOINT lCollar
      {
        OFFSET 2.68224 19.2634 -4.8768
        CHANNELS 3 Zrotation Xrotation Yrotation
        JOINT lShldr
        {
          OFFSET 8.77824 -1.95073 1.46304
          CHANNELS 3 Zrotation Xrotation Yrotation
          JOINT lForeArm
          {
            OFFSET 28.1742 -1.7115 0.48768
            CHANNELS 3 Zrotation Xrotation Yrotation
            JOINT lHand
            {
              OFFSET 22.5879 0.773209 7.07136
              CHANNELS 3 Zrotation Xrotation Yrotation
              JOINT lThumb1
              {
                OFFSET 1.2192 -0.487915 3.41376
                CHANNELS 3 Zrotation Xrotation Yrotation
                JOINT lThumb2
                {
                  OFFSET 3.37035 -0.52449 3.41376
                  CHANNELS 3 Zrotation Xrotation Yrotation
                  End Site
                  {
                    OFFSET 1.78271 -1.18214 1.43049
                  }
                }
              }
              JOINT lIndex1
              {
                OFFSET 7.75947 0.938293 5.60832
                CHANNELS 3 Zrotation Xrotation Yrotation
                JOINT lIndex2
                {
                  OFFSET 2.54057 -0.884171 1.56538
                  CHANNELS 3 Zrotation Xrotation Yrotation
                  End Site
                  {
                    OFFSET 1.62519 -0.234802 1.16502
                  }
                }
              }
              JOINT lMid1
              {
                OFFSET 8.24714 1.18213 3.41376
                CHANNELS 3 Zrotation Xrotation Yrotation
                JOINT lMid2
                {
                  OFFSET 3.10165 -0.590103 1.0647
                  CHANNELS 3 Zrotation Xrotation Yrotation
                  End Site
                  {
                    OFFSET 2.48547 -0.328903 0.83742
                  }
                }
              }
              JOINT lRing1
              {
                OFFSET 8.82822 0.546677 1.51678
                CHANNELS 3 Zrotation Xrotation Yrotation
                JOINT lRing2
                {
                  OFFSET 2.60934 -0.819778 -0.0198488
                  CHANNELS 3 Zrotation Xrotation Yrotation
                  End Site
                  {
                    OFFSET 2.33842 -0.294052 0.168128
                  }
                }
              }
              JOINT lPinky1
              {
                OFFSET 8.27202 -0.0477905 -0.4584
                CHANNELS 3 Zrotation Xrotation Yrotation
                JOINT lPinky2
                {
                  OFFSET 1.82734 -0.647385 -0.700984
                  CHANNELS 3 Zrotation Xrotation Yrotation
                  End Site
                  {
                    OFFSET 1.69225 -0.51767 -0.607171
                  }
                }
              }
            }
          }
        }
      }
    }
  }
  JOINT rButtock
  {
    OFFSET -8.77824 4.35084 1.2192
    CHANNELS 3 Zrotation Xrotation Yrotation
    JOINT rThigh
    {
      OFFSET 0 -1.70687 -2.19456
      CHANNELS 3 Zrotation Xrotation Yrotation
      JOINT rShin
      {
        OFFSET 0 -36.8199 0.73152
        CHANNELS 3 Zrotation Xrotation Yrotation
        JOINT rFoot
        {
          OFFSET 0.73152 -45.1104 -5.12064
          CHANNELS 3 Zrotation Xrotation Yrotation
          End Site
          {
            OFFSET -1.1221 -3.69964 12.103
          }
        }
      }
    }
  }
  JOINT lButtock
  {
    OFFSET 8.77824 4.35084 1.2192
    CHANNELS 3 Zrotation Xrotation Yrotation
    JOINT lThigh
    {
      OFFSET 0 -1.70687 -2.19456
      CHANNELS 3 Zrotation Xrotation Yrotation
      JOINT lShin
      {
        OFFSET 0 -36.8199 0.73152
        CHANNELS 3 Zrotation Xrotation Yrotation
        JOINT lFoot
        {
          OFFSET -0.73152 -45.1104 -5.12064
          CHANNELS 3 Zrotation Xrotation Yrotation
          End Site
          {
            OFFSET 1.1221 -3.69964 12.103
          }
        }
      }
    }
  }
}
MOTION
Frames:	4
Frame Time:	0.03333
4.510118006464836 55.92489838600159 14.586999981838744 -6.298000039792398 -22.572200848288453 16.12810007394172 1.664759999334466 6.426290202312278 2.083109939771393 5.400199847924548 -8.175769733677466 0.8202179940763791 -2.2702899933151235 11.116599888380252 2.4196299450833365 4.337579934308297 -27.986799161870213 6.1322100042950325 -0.0 0.0 0.0 -0.0 0.0 0.0 -1.08888997087434e-13 9.123910084588913e-18 9.893019826871512e-13 102.26200206478111 45.72839994608592 -47.34719917560855 -28.412299456594496 -36.7419986022756 78.25819698155257 -5.969630157707573 -54.794799880550016 -11.489599934049233 -3.985409946381267e-09 4.8239600075944415e-09 -5.148330069491504e-10 -6.838409638003571e-09 8.110159993357451e-09 -1.0426899877495588e-09 -3.985400007147888e-09 4.8239600075944415e-09 -5.148490091148915e-10 7.730910121524428 5.474879855648998 0.41731399283890674 -3.985409946381267e-09 4.8239500683610626e-09 -5.14840014108683e-10 2.90554006136521 0.9651829962377875 0.10290200252939893 -3.985400007147888e-09 4.8239500683610626e-09 -5.148379765658402e-10 10.278599710243157 0.7318009818271524 0.025912300303053633 -3.985419885614646e-09 4.8239500683610626e-09 -5.148299754829696e-10 2.221669932038622 -0.7334870246959406 -0.20891999872313852 -1.0893599976091113e-13 -9.512159907417315e-18 9.89053016538532e-13 -41.14050040888583 28.498699642047864 -42.16559910518344 16.309499653013503 -8.978070220570197 -30.328898349024264 0.978230044934687 26.90010069699555 -4.08869979378408 -1.4588400239892743e-09 -1.0566600175908179e-08 -5.0159498176783e-09 -2.6220299972857668e-09 -1.7997200470608124e-08 -8.63029995457729e-09 -1.458849963222654e-09 -1.0566600175908179e-08 -5.015919999978161e-09 -7.730910121524428 5.474879855648998 -0.41731399283890674 -1.4588400239892743e-09 -1.0566600175908179e-08 -5.0159398784449205e-09 -2.90554006136521 0.9651829962377875 -0.10290200252939893 -1.4588400239892743e-09 -1.0566600175908179e-08 -5.0159398784449205e-09 -10.278599710243157 0.7318009818271524 -0.025912300303053633 -1.458829985363561e-09 -1.0566600175908179e-08 -5.0159398784449205e-09 -2.221669932038622 -0.7334870246959406 0.20891999872313852 -2.0321699793705798e-16 0.0 -3.882510030490358e-19 -13.088600152715285 4.488180055978378 2.8780999898180957 -0.2687789895365501 48.055500037822625 2.2834099329370714 4.606969852249594 8.215500090305785 -25.562100789535904 2.0321699793705798e-16 0.0 3.882510030490358e-19 56.45509933946964 -56.583800594000195 63.476800183620384 5.408700018346629 81.16920311524449 -6.5051400405250215 8.549879685086575 -9.02740040807697 26.519799179103828
5.080809988749024 56.61410093307495 16.397999941546004 -4.688900105778012 -21.587600051127144 14.786999260598888 0.8360470108387364 7.6714704002723915 1.0448799913510234 5.802039940477085 -8.477559934607187 0.6068130023275619 -2.341630038535437 11.181099926033621 2.4002200415660413 4.069590205146854 -28.480300819971145 6.052890163690028 -0.0 0.0 0.0 -0.0 0.0 0.0 -1.5381899401196615e-14 4.67249009016936e-14 -7.999520159058503e-14 100.88000207868824 44.908299132442494 -45.36789914659806 -28.426000816069543 -36.21779865895005 77.38359808852161 -5.848509986268914 -54.44459900633054 -11.340700102595664 7.217289835093563e-10 -5.589200171854225e-10 2.8107399100505327e-10 1.231949987385717e-09 -9.199879650473805e-10 5.116529989255228e-10 7.217340028222131e-10 -5.589190232620845e-10 2.8105500706929827e-10 7.730910121524428 5.474879855648998 0.41731399283890674 7.217289835093563e-10 -5.589249868021123e-10 2.8106499599884476e-10 2.90554006136521 0.9651829962377875 0.10290200252939893 7.217379785155649e-10 -5.589259807254501e-10 2.8106899654028006e-10 10.278599710243157 0.7318009818271524 0.025912300303053633 7.217260017393425e-10 -5.589259807254501e-10 2.810769976231506e-10 2.221669932038622 -0.7334870246959406 -0.20891999872313852 -1.5430600674128265e-14 4.670349854856669e-14 -8.023750073634526e-14 -40.72350028458362 28.787300747690292 -42.44099916270752 16.432499407134387 -9.09548971013918 -30.59090099049137 0.9463370102138413 26.499899422956993 -4.017980015117769 4.2684201745929117e-10 1.7201399847299165e-09 9.889720094569808e-10 7.565119767713434e-10 2.9170500993669512e-09 1.7002400492266696e-09 4.268360042230965e-10 1.720149923963296e-09 9.889870176993837e-10 -7.730910121524428 5.474879855648998 -0.41731399283890674 4.2684698707598096e-10 1.7201199074784899e-09 9.889690276869668e-10 -2.90554006136521 0.9651829962377875 -0.10290200252939893 4.268360042230965e-10 1.7201399847299165e-09 9.889769790736704e-10 -10.278599710243157 0.7318009818271524 -0.025912300303053633 4.26844999229305e-10 1.7201399847299165e-09 9.889739973036565e-10 -2.221669932038622 -0.7334870246959406 0.20891999872313852 -2.0321699793705798e-16 0.0 -3.882510030490358e-19 -13.914000339381001 1.0054100356848124 2.2687899130186593 -0.5264110036259336 57.05040155205503 2.621590101104151 3.5401600444643635 13.070199623091272 -13.441900225270658 2.0321699793705798e-16 0.0 3.882510030490358e-19 48.66989945932737 -56.4908007382613 56.81480100682461 4.439170033588952 79.78889701606579 -5.715589809265411 8.79167008925232 -9.526649670364467 27.071400133832178
5.692799980488417 57.114702463150024 18.018999851483386 -2.9345000634460643 -20.38539967229298 13.266199585287604 -0.30294100776358873 9.155919808820867 -0.03621670121296907 6.229789928759242 -8.82691984178511 0.3707290077699521 -2.436700081923079 11.284800126880986 2.3820799129041337 3.8829198544699364 -28.98699840354854 5.996159893104371 -0.0 0.0 0.0 -0.0 0.0 0.0 9.305269958305426e-14 1.1609900579346238e-13 -1.0781100035619e-12 99.48210141220758 43.99469985925076 -43.16639940350873 -28.433199835454737 -35.74020109633149 76.57499931344047 -5.5870200358763835 -53.67089908281359 -11.018100022812206 5.365730126064244e-09 -5.900180197934659e-09 1.0600900072731752e-09 9.193940362175507e-09 -9.87971009384857e-09 2.0357100481773723e-09 5.365730126064244e-09 -5.900180197934659e-09 1.060059990788369e-09 7.730910121524428 5.474879855648998 0.41731399283890674 5.365730126064244e-09 -5.900180197934659e-09 1.0600799686474619e-09 2.90554006136521 0.9651829962377875 0.10290200252939893 5.365740065297624e-09 -5.900180197934659e-09 1.0600799686474619e-09 10.278599710243157 0.7318009818271524 0.025912300303053633 5.365730126064244e-09 -5.900180197934659e-09 1.0600900072731752e-09 2.221669932038622 -0.7334870246959406 -0.20891999872313852 9.296619840583299e-14 1.160810006392445e-13 -1.078360037401605e-12 -39.94120115290163 29.10100109098522 -42.801400924452416 16.59449954141604 -9.25145024964725 -30.937898505990113 0.913563948307122 26.075700279269597 -3.9437098187435193 2.319140010214636e-09 1.3516700611678224e-08 6.81184962099734e-09 4.1434998143927466e-09 2.2989799848523125e-08 1.1716299925915579e-08 2.319140010214636e-09 1.3516700611678224e-08 6.811859957800054e-09 -7.730910121524428 5.474879855648998 -0.41731399283890674 2.3191499494480155e-09 1.3516700611678224e-08 6.811840079333295e-09 -2.90554006136521 0.9651829962377875 -0.10290200252939893 2.319140010214636e-09 1.3516700611678224e-08 6.81184962099734e-09 -10.278599710243157 0.7318009818271524 -0.025912300303053633 2.319140010214636e-09 1.3516700611678224e-08 6.81184962099734e-09 -2.221669932038622 -0.7334870246959406 0.20891999872313852 -2.0321699793705798e-16 0.0 -3.882510030490358e-19 -14.721699237038981 -3.2360599589347085 1.4017900323261587 -1.1296799915479052 66.54449768706156 3.2886400358259364 0.44330699809690427 15.603300781516499 -1.0758799788378899 2.0321699793705798e-16 0.0 3.882510030490358e-19 40.567099197874086 -55.926200225995125 49.87029837576794 3.719680040853924 78.46050035457918 -5.138399977698429 9.015889831778205 -9.940890398241985 27.689699593352998
6.280719986853001 57.403600215911865 19.599999829370063 -1.076900024901749 -19.124599685474696 12.124799842897604 -2.1430299086994458 10.096599928298058 -0.9673309840100507 6.601020101659544 -8.961460054282373 0.0987259021408915 -2.5859499605716127 11.4373003218008 2.3547800736784157 3.8492299463888484 -29.354401109192697 5.953980059884958 -0.0 0.0 0.0 -0.0 0.0 0.0 4.4424900177451676e-14 5.4073299965065436e-14 -7.138789828099387e-13 98.2020966409905 43.06480033960479 -40.797098987985095 -28.43039945789503 -35.204898680510084 75.68019672084462 -5.111069829508269 -52.16730123892698 -10.423299829130816 3.4200898083419025e-09 -3.817170133242567e-09 6.172839907289483e-10 5.862890182141175e-09 -6.3998401699912205e-09 1.1963700166951888e-09 3.4200898083419025e-09 -3.8171601940091876e-09 6.172630189465175e-10 7.730910121524428 5.474879855648998 0.41731399283890674 3.4200898083419025e-09 -3.817170133242567e-09 6.172790211122585e-10 2.90554006136521 0.9651829962377875 0.10290200252939893 3.4201001451446176e-09 -3.817170133242567e-09 6.172849846522863e-10 10.278599710243157 0.7318009818271524 0.025912300303053633 3.4200898083419025e-09 -3.817170133242567e-09 6.17290003965143e-10 2.221669932038622 -0.7334870246959406 -0.20891999872313852 4.4307499656224747e-14 5.406480090136623e-14 -7.14184002740557e-13 -38.83540035646573 29.42760024652772 -43.20130167016749 16.777999403657606 -9.430899809710995 -31.331901383356882 0.8946870129884992 25.82679964817787 -3.9003901977063595 1.5176400317011621e-09 9.195949677595521e-09 4.6047899723414665e-09 2.714300075226367e-09 1.5646099463968797e-08 7.92146006952223e-09 1.5176299930754489e-09 9.195949677595521e-09 4.604799911574846e-09 -7.730910121524428 5.474879855648998 -0.41731399283890674 1.5176400317011621e-09 9.195940135931478e-09 4.6047800331080875e-09 -2.90554006136521 0.9651829962377875 -0.10290200252939893 1.5176299930754489e-09 9.195949677595521e-09 4.6047899723414665e-09 -10.278599710243157 0.7318009818271524 -0.025912300303053633 1.5176400317011621e-09 9.195949677595521e-09 4.6047800331080875e-09 -2.221669932038622 -0.7334870246959406 0.20891999872313852 -2.0321699793705798e-16 0.0 -3.882510030490358e-19 -15.530499502700625 -9.036130243609891 -0.22294999435092486 -2.562580041439591 76.02820168924593 4.6720402106986585 -1.348360023770088 13.656299863317358 5.350039792433621 2.0321699793705798e-16 0.0 3.882510030490358e-19 33.20720153697017 -55.61280041102367 44.02470146518004 3.325209935859242 77.40059842936577 -4.723699919599227 9.15452986532477 -10.082699639563435 28.38019927504273
